<svg width="418" height="296" viewBox="0 0 418 296" fill="none" xmlns="http://www.w3.org/2000/svg">
<g clip-path="url(#clip0)">
<rect width="418" height="296" fill="#FC7303"/>
<path d="M528.412 176L528.412 -21.7554L331 -108.273L331 89.482L528.412 176Z" fill="black"/>
<path d="M570.324 149.273L570.324 -48.482L372.912 -135L372.912 62.7554L570.324 149.273Z" fill="#FDBE10"/>
<path d="M-98.0879 143V340.755L99.3242 427.273V229.518L-98.0879 143Z" fill="black"/>
<path d="M-140 169.727V367.482L57.4121 454V256.245L-140 169.727Z" fill="#FDBE10"/>
<path d="M182.916 227.151L182.573 105.249L290.339 162.231L182.916 227.151Z" fill="#14189A"/>
<path d="M166.67 205.742L166.327 83.8402L274.092 140.822L166.67 205.742Z" fill="#FDBE10"/>
<circle cx="371" cy="249" r="31" fill="white"/>
<path d="M385.307 249L363.846 262.712V235.289L385.307 249Z" fill="#131314"/>
</g>
<defs>
<clipPath id="clip0">
<rect width="418" height="296" fill="white"/>
</clipPath>
</defs>
</svg>
